<svg width="24" height="24" viewBox="0 0 24 24" fill="none" xmlns="http://www.w3.org/2000/svg">
<rect width="24" height="24" fill="#F2F2F2"/>
<g id="DESKTOP" clip-path="url(#clip0_0_1)">
<rect width="1440" height="3619" transform="translate(-120 -3394)" fill="white"/>
<rect id="Rectangle" x="-120" y="-3394" width="1440" height="3622" fill="#1B2330"/>
<path id="Path 2" fill-rule="evenodd" clip-rule="evenodd" d="M-120 -2132.05C-120 -2132.05 16.2542 -2140.08 136.111 -2267.09C255.968 -2394.1 230.009 -2440.84 429.005 -2397.31C628 -2353.79 611.05 -2382.3 739 -2482.87C866.95 -2583.44 950 -2560.42 1028 -2438.2C1106 -2315.98 1179 -2275.31 1312 -2230.43C1445 -2185.54 1322.09 224.666 1322.09 224.666L-120 224.65V-2132.05Z" fill="#181F2B"/>
<rect id="Rectangle_2" x="-120" y="-289" width="1441" height="517" fill="#0B1524"/>
<g id="Group 37">
<g id="Group 34">
<g id="place">
<path id="Shape" fill-rule="evenodd" clip-rule="evenodd" d="M6.1875 3C2.74018 3 0 5.79 0 9.3C0 13.98 6.1875 21 6.1875 21C6.1875 21 12.375 13.98 12.375 9.3C12.375 5.79 9.63482 3 6.1875 3ZM6.1875 11.55C4.95 11.55 3.97768 10.56 3.97768 9.3C3.97768 8.04 4.95 7.05 6.1875 7.05C7.425 7.05 8.39732 8.04 8.39732 9.3C8.39732 10.56 7.425 11.55 6.1875 11.55Z" fill="white"/>
</g>
</g>
</g>
</g>
<defs>
<clipPath id="clip0_0_1">
<rect width="1440" height="3619" fill="white" transform="translate(-120 -3394)"/>
</clipPath>
</defs>
</svg>
