<svg width="24" height="24" viewBox="0 0 24 24" fill="none" xmlns="http://www.w3.org/2000/svg">
<rect width="24" height="24" fill="#F2F2F2"/>
<g id="DESKTOP" clip-path="url(#clip0_0_1)">
<rect width="1440" height="3619" transform="translate(-579 -3389)" fill="white"/>
<rect id="Rectangle" x="-579" y="-3389" width="1440" height="3622" fill="#1B2330"/>
<path id="Path 2" fill-rule="evenodd" clip-rule="evenodd" d="M-579 -2127.05C-579 -2127.05 -442.746 -2135.08 -322.889 -2262.09C-203.032 -2389.1 -228.991 -2435.84 -29.9954 -2392.31C169 -2348.79 152.05 -2377.3 280 -2477.87C407.95 -2578.44 491 -2555.42 569 -2433.2C647 -2310.98 720 -2270.31 853 -2225.43C986 -2180.54 863.091 229.666 863.091 229.666L-579 229.65V-2127.05Z" fill="#181F2B"/>
<rect id="Rectangle_2" x="-579" y="-284" width="1441" height="517" fill="#0B1524"/>
<g id="Group 3">
<g id="Group 36">
<g id="Group 21">
<g id="phone-in-talk">
<path id="Shape" fill-rule="evenodd" clip-rule="evenodd" d="M20 15.5C18.8 15.5 17.6 15.3 16.4 14.9C16.1 14.8 15.7 14.9 15.4 15.1L13.2 17.3C10.4 15.9 8.1 13.5 6.6 10.7L8.8 8.5C9.1 8.2 9.2 7.8 9 7.5C8.7 6.4 8.5 5.2 8.5 4C8.5 3.4 8.1 3 7.5 3H4C3.4 3 3 3.4 3 4C3 13.4 10.6 21 20 21C20.6 21 21 20.6 21 20V16.5C21 15.9 20.6 15.5 20 15.5ZM19 12H21C21 7 17 3 12 3V5C15.9 5 19 8.1 19 12ZM15 12H17C17 9.2 14.8 7 12 7V9C13.7 9 15 10.3 15 12Z" fill="white"/>
</g>
</g>
</g>
</g>
</g>
<defs>
<clipPath id="clip0_0_1">
<rect width="1440" height="3619" fill="white" transform="translate(-579 -3389)"/>
</clipPath>
</defs>
</svg>
